<svg width="24" height="24" viewBox="0 0 24 24" fill="none" xmlns="http://www.w3.org/2000/svg">
<path fill-rule="evenodd" clip-rule="evenodd" d="M19.6364 13.925C18.967 14.1156 18.2604 14.2177 17.5299 14.2177C13.2906 14.2177 9.85388 10.781 9.85388 6.54162C9.85388 5.78512 9.96332 5.05418 10.1672 4.36377H2.21355C0.991042 4.36377 0 5.35481 0 6.57732V21.7866C0 23.0091 0.991042 24.0001 2.21355 24.0001H17.4228C18.6453 24.0001 19.6364 23.0091 19.6364 21.7866V13.925Z" fill="#262949"/>
<path d="M24 5.45455C24 8.46701 21.558 10.9091 18.5455 10.9091C15.533 10.9091 13.0909 8.46701 13.0909 5.45455C13.0909 2.44208 15.533 0 18.5455 0C21.558 0 24 2.44208 24 5.45455Z" fill="url(#paint0_linear_90_593)"/>
<defs>
<linearGradient id="paint0_linear_90_593" x1="21.8395" y1="0.850059" x2="16.5974" y2="10.9091" gradientUnits="userSpaceOnUse">
<stop stop-color="#FE7970"/>
<stop offset="1" stop-color="#FEB776"/>
</linearGradient>
</defs>
</svg>
