<svg width="66" height="67" viewBox="0 0 66 67" fill="none" xmlns="http://www.w3.org/2000/svg">
<path fill-rule="evenodd" clip-rule="evenodd" d="M53.8336 38.874C51.9986 39.4061 50.0613 39.6909 48.0587 39.6909C36.4364 39.6909 27.0147 30.0968 27.0147 18.262C27.0147 16.1501 27.3147 14.1095 27.8737 12.1821H6.06851C2.71697 12.1821 0 14.9488 0 18.3616V60.8208C0 64.2337 2.71697 67.0003 6.06851 67.0003H47.7651C51.1166 67.0003 53.8336 64.2337 53.8336 60.8208V38.874Z" fill="#262949"/>
<path d="M65.7962 15.2273C65.7962 23.6371 59.1012 30.4545 50.8424 30.4545C42.5837 30.4545 35.8887 23.6371 35.8887 15.2273C35.8887 6.81748 42.5837 0 50.8424 0C59.1012 0 65.7962 6.81748 65.7962 15.2273Z" fill="url(#paint0_linear_2207_4148)"/>
<defs>
<linearGradient id="paint0_linear_2207_4148" x1="59.873" y1="2.37308" x2="45.0879" y2="30.2349" gradientUnits="userSpaceOnUse">
<stop stop-color="#FE7970"/>
<stop offset="1" stop-color="#FEB776"/>
</linearGradient>
</defs>
</svg>
